<svg width="91" height="91" viewBox="0 0 91 91" fill="none" xmlns="http://www.w3.org/2000/svg">
<g filter="url(#filter0_d_428_7)">
<circle cx="45.5" cy="45.5" r="24.5" fill="#65C466"/>
</g>
<path d="M60.5571 44.29H30.4425C29.7378 44.29 29.1665 44.8316 29.1665 45.4999C29.1665 46.1681 29.7378 46.7097 30.4425 46.7097H60.5571C61.2619 46.7097 61.8332 46.1681 61.8332 45.4999C61.8332 44.8316 61.2619 44.29 60.5571 44.29Z" fill="white"/>
<path d="M60.5571 34.6111H30.4425C29.7378 34.6111 29.1665 35.1528 29.1665 35.821C29.1665 36.4892 29.7378 37.0309 30.4425 37.0309H60.5571C61.2619 37.0309 61.8332 36.4892 61.8332 35.821C61.8332 35.1528 61.2619 34.6111 60.5571 34.6111Z" fill="white"/>
<path d="M60.5571 53.9691H30.4425C29.7378 53.9691 29.1665 54.5108 29.1665 55.179C29.1665 55.8472 29.7378 56.3889 30.4425 56.3889H60.5571C61.2619 56.3889 61.8332 55.8472 61.8332 55.179C61.8332 54.5108 61.2619 53.9691 60.5571 53.9691Z" fill="white"/>
<defs>
<filter id="filter0_d_428_7" x="0.583332" y="0.583332" width="89.8333" height="89.8333" filterUnits="userSpaceOnUse" color-interpolation-filters="sRGB">
<feFlood flood-opacity="0" result="BackgroundImageFix"/>
<feColorMatrix in="SourceAlpha" type="matrix" values="0 0 0 0 0 0 0 0 0 0 0 0 0 0 0 0 0 0 127 0" result="hardAlpha"/>
<feOffset/>
<feGaussianBlur stdDeviation="10.2083"/>
<feColorMatrix type="matrix" values="0 0 0 0 0 0 0 0 0 0 0 0 0 0 0 0 0 0 0.15 0"/>
<feBlend mode="normal" in2="BackgroundImageFix" result="effect1_dropShadow_428_7"/>
<feBlend mode="normal" in="SourceGraphic" in2="effect1_dropShadow_428_7" result="shape"/>
</filter>
</defs>
</svg>
